<svg width="230" height="80" viewBox="0 0 230 80" fill="none" xmlns="http://www.w3.org/2000/svg">
<rect width="80" height="80" rx="16" fill="#131313"/>
<circle cx="16" cy="55" r="5" fill="#0090FF"/>
<circle cx="16" cy="25" r="5" fill="#FFBE16"/>
<circle cx="16" cy="40" r="5" fill="#00C67D"/>
<rect x="26" y="51" width="42" height="8" rx="4" fill="#0090FF"/>
<rect x="26" y="21" width="42" height="8" rx="4" fill="#FFBE16"/>
<rect x="26" y="36" width="42" height="8" rx="4" fill="#00C67D"/>
<path d="M99.448 32C99.228 32 99.041 31.923 98.887 31.769C98.733 31.615 98.656 31.428 98.656 31.208V12.959H92.551C92.331 12.959 92.144 12.882 91.99 12.728C91.836 12.574 91.759 12.387 91.759 12.167V9.725C91.759 9.483 91.836 9.285 91.99 9.131C92.144 8.977 92.331 8.9 92.551 8.9H109.381C109.623 8.9 109.821 8.977 109.975 9.131C110.129 9.285 110.206 9.483 110.206 9.725V12.167C110.206 12.387 110.129 12.574 109.975 12.728C109.821 12.882 109.623 12.959 109.381 12.959H103.309V31.208C103.309 31.428 103.232 31.615 103.078 31.769C102.924 31.923 102.726 32 102.484 32H99.448ZM115.177 32.33C114.033 32.33 112.999 32.11 112.075 31.67C111.151 31.208 110.414 30.603 109.864 29.855C109.336 29.085 109.072 28.227 109.072 27.281C109.072 25.741 109.688 24.52 110.92 23.618C112.174 22.694 113.824 22.078 115.87 21.77L120.391 21.11V20.417C120.391 19.493 120.16 18.778 119.698 18.272C119.236 17.766 118.444 17.513 117.322 17.513C116.53 17.513 115.881 17.678 115.375 18.008C114.891 18.316 114.528 18.734 114.286 19.262C114.11 19.548 113.857 19.691 113.527 19.691H110.92C110.678 19.691 110.491 19.625 110.359 19.493C110.249 19.361 110.194 19.185 110.194 18.965C110.216 18.613 110.359 18.184 110.623 17.678C110.887 17.172 111.305 16.688 111.877 16.226C112.449 15.742 113.186 15.335 114.088 15.005C114.99 14.675 116.079 14.51 117.355 14.51C118.741 14.51 119.907 14.686 120.853 15.038C121.821 15.368 122.591 15.819 123.163 16.391C123.735 16.963 124.153 17.634 124.417 18.404C124.681 19.174 124.813 19.988 124.813 20.846V31.208C124.813 31.428 124.736 31.615 124.582 31.769C124.428 31.923 124.241 32 124.021 32H121.348C121.106 32 120.908 31.923 120.754 31.769C120.622 31.615 120.556 31.428 120.556 31.208V29.921C120.27 30.339 119.885 30.735 119.401 31.109C118.917 31.461 118.323 31.758 117.619 32C116.937 32.22 116.123 32.33 115.177 32.33ZM116.299 29.195C117.069 29.195 117.762 29.03 118.378 28.7C119.016 28.37 119.511 27.864 119.863 27.182C120.237 26.478 120.424 25.598 120.424 24.542V23.849L117.124 24.377C115.826 24.575 114.858 24.894 114.22 25.334C113.582 25.774 113.263 26.313 113.263 26.951C113.263 27.435 113.406 27.853 113.692 28.205C114 28.535 114.385 28.788 114.847 28.964C115.309 29.118 115.793 29.195 116.299 29.195ZM135.547 32.33C134.227 32.33 133.094 32.176 132.148 31.868C131.224 31.56 130.465 31.175 129.871 30.713C129.277 30.251 128.837 29.789 128.551 29.327C128.265 28.865 128.111 28.48 128.089 28.172C128.067 27.93 128.133 27.743 128.287 27.611C128.463 27.457 128.65 27.38 128.848 27.38H131.455C131.543 27.38 131.62 27.391 131.686 27.413C131.752 27.435 131.84 27.501 131.95 27.611C132.236 27.853 132.533 28.106 132.841 28.37C133.171 28.634 133.556 28.865 133.996 29.063C134.436 29.239 134.986 29.327 135.646 29.327C136.504 29.327 137.219 29.162 137.791 28.832C138.385 28.48 138.682 27.985 138.682 27.347C138.682 26.885 138.55 26.511 138.286 26.225C138.044 25.939 137.582 25.686 136.9 25.466C136.218 25.224 135.25 24.971 133.996 24.707C132.764 24.421 131.741 24.058 130.927 23.618C130.113 23.178 129.508 22.628 129.112 21.968C128.716 21.308 128.518 20.538 128.518 19.658C128.518 18.8 128.771 17.986 129.277 17.216C129.805 16.424 130.575 15.775 131.587 15.269C132.621 14.763 133.897 14.51 135.415 14.51C136.603 14.51 137.637 14.664 138.517 14.972C139.397 15.258 140.123 15.621 140.695 16.061C141.289 16.501 141.74 16.952 142.048 17.414C142.356 17.854 142.521 18.239 142.543 18.569C142.565 18.811 142.499 19.009 142.345 19.163C142.191 19.295 142.015 19.361 141.817 19.361H139.375C139.265 19.361 139.166 19.339 139.078 19.295C138.99 19.251 138.902 19.196 138.814 19.13C138.572 18.91 138.308 18.679 138.022 18.437C137.736 18.195 137.384 17.986 136.966 17.81C136.57 17.612 136.042 17.513 135.382 17.513C134.546 17.513 133.908 17.7 133.468 18.074C133.028 18.426 132.808 18.877 132.808 19.427C132.808 19.801 132.907 20.131 133.105 20.417C133.325 20.681 133.754 20.934 134.392 21.176C135.03 21.418 135.998 21.671 137.296 21.935C138.77 22.199 139.936 22.595 140.794 23.123C141.674 23.629 142.29 24.223 142.642 24.905C143.016 25.565 143.203 26.302 143.203 27.116C143.203 28.106 142.906 28.997 142.312 29.789C141.74 30.581 140.882 31.208 139.738 31.67C138.616 32.11 137.219 32.33 135.547 32.33ZM147.435 32C147.215 32 147.028 31.923 146.874 31.769C146.72 31.615 146.643 31.428 146.643 31.208V9.362C146.643 9.142 146.72 8.955 146.874 8.801C147.028 8.647 147.215 8.57 147.435 8.57H150.108C150.35 8.57 150.537 8.647 150.669 8.801C150.823 8.955 150.9 9.142 150.9 9.362V20.648L156.444 15.401C156.642 15.225 156.818 15.093 156.972 15.005C157.126 14.895 157.357 14.84 157.665 14.84H160.734C160.954 14.84 161.13 14.906 161.262 15.038C161.394 15.17 161.46 15.346 161.46 15.566C161.46 15.654 161.438 15.753 161.394 15.863C161.35 15.973 161.262 16.072 161.13 16.16L154.332 22.529L161.955 30.713C162.175 30.933 162.285 31.12 162.285 31.274C162.285 31.494 162.208 31.67 162.054 31.802C161.922 31.934 161.757 32 161.559 32H158.424C158.094 32 157.852 31.956 157.698 31.868C157.566 31.758 157.401 31.615 157.203 31.439L150.9 24.806V31.208C150.9 31.428 150.823 31.615 150.669 31.769C150.537 31.923 150.35 32 150.108 32H147.435Z" fill="black"/>
<path d="M94.399 67C94.157 67 93.959 66.923 93.805 66.769C93.651 66.615 93.574 66.428 93.574 66.208V44.725C93.574 44.483 93.651 44.285 93.805 44.131C93.959 43.977 94.157 43.9 94.399 43.9H97.006C97.314 43.9 97.545 43.988 97.699 44.164C97.853 44.318 97.952 44.439 97.996 44.527L104.365 56.407L110.8 44.527C110.844 44.439 110.943 44.318 111.097 44.164C111.251 43.988 111.482 43.9 111.79 43.9H114.364C114.606 43.9 114.804 43.977 114.958 44.131C115.112 44.285 115.189 44.483 115.189 44.725V66.208C115.189 66.428 115.112 66.615 114.958 66.769C114.804 66.923 114.606 67 114.364 67H111.592C111.35 67 111.152 66.923 110.998 66.769C110.866 66.615 110.8 66.428 110.8 66.208V51.919L106.18 60.73C106.07 60.928 105.927 61.104 105.751 61.258C105.575 61.39 105.344 61.456 105.058 61.456H103.705C103.397 61.456 103.155 61.39 102.979 61.258C102.825 61.104 102.693 60.928 102.583 60.73L97.963 51.919V66.208C97.963 66.428 97.886 66.615 97.732 66.769C97.578 66.923 97.391 67 97.171 67H94.399ZM124.909 67.33C123.765 67.33 122.731 67.11 121.807 66.67C120.883 66.208 120.146 65.603 119.596 64.855C119.068 64.085 118.804 63.227 118.804 62.281C118.804 60.741 119.42 59.52 120.652 58.618C121.906 57.694 123.556 57.078 125.602 56.77L130.123 56.11V55.417C130.123 54.493 129.892 53.778 129.43 53.272C128.968 52.766 128.176 52.513 127.054 52.513C126.262 52.513 125.613 52.678 125.107 53.008C124.623 53.316 124.26 53.734 124.018 54.262C123.842 54.548 123.589 54.691 123.259 54.691H120.652C120.41 54.691 120.223 54.625 120.091 54.493C119.981 54.361 119.926 54.185 119.926 53.965C119.948 53.613 120.091 53.184 120.355 52.678C120.619 52.172 121.037 51.688 121.609 51.226C122.181 50.742 122.918 50.335 123.82 50.005C124.722 49.675 125.811 49.51 127.087 49.51C128.473 49.51 129.639 49.686 130.585 50.038C131.553 50.368 132.323 50.819 132.895 51.391C133.467 51.963 133.885 52.634 134.149 53.404C134.413 54.174 134.545 54.988 134.545 55.846V66.208C134.545 66.428 134.468 66.615 134.314 66.769C134.16 66.923 133.973 67 133.753 67H131.08C130.838 67 130.64 66.923 130.486 66.769C130.354 66.615 130.288 66.428 130.288 66.208V64.921C130.002 65.339 129.617 65.735 129.133 66.109C128.649 66.461 128.055 66.758 127.351 67C126.669 67.22 125.855 67.33 124.909 67.33ZM126.031 64.195C126.801 64.195 127.494 64.03 128.11 63.7C128.748 63.37 129.243 62.864 129.595 62.182C129.969 61.478 130.156 60.598 130.156 59.542V58.849L126.856 59.377C125.558 59.575 124.59 59.894 123.952 60.334C123.314 60.774 122.995 61.313 122.995 61.951C122.995 62.435 123.138 62.853 123.424 63.205C123.732 63.535 124.117 63.788 124.579 63.964C125.041 64.118 125.525 64.195 126.031 64.195ZM139.571 67C139.351 67 139.164 66.923 139.01 66.769C138.856 66.615 138.779 66.428 138.779 66.208V50.632C138.779 50.412 138.856 50.225 139.01 50.071C139.164 49.917 139.351 49.84 139.571 49.84H142.277C142.497 49.84 142.684 49.917 142.838 50.071C142.992 50.225 143.069 50.412 143.069 50.632V51.985C143.641 51.281 144.367 50.698 145.247 50.236C146.149 49.752 147.26 49.51 148.58 49.51C149.922 49.51 151.088 49.818 152.078 50.434C153.068 51.028 153.827 51.875 154.355 52.975C154.905 54.075 155.18 55.395 155.18 56.935V66.208C155.18 66.428 155.103 66.615 154.949 66.769C154.795 66.923 154.608 67 154.388 67H151.484C151.264 67 151.077 66.923 150.923 66.769C150.769 66.615 150.692 66.428 150.692 66.208V57.133C150.692 55.857 150.373 54.856 149.735 54.13C149.119 53.404 148.217 53.041 147.029 53.041C145.885 53.041 144.972 53.404 144.29 54.13C143.608 54.856 143.267 55.857 143.267 57.133V66.208C143.267 66.428 143.19 66.615 143.036 66.769C142.882 66.923 142.695 67 142.475 67H139.571ZM164.354 67.33C163.21 67.33 162.176 67.11 161.252 66.67C160.328 66.208 159.591 65.603 159.041 64.855C158.513 64.085 158.249 63.227 158.249 62.281C158.249 60.741 158.865 59.52 160.097 58.618C161.351 57.694 163.001 57.078 165.047 56.77L169.568 56.11V55.417C169.568 54.493 169.337 53.778 168.875 53.272C168.413 52.766 167.621 52.513 166.499 52.513C165.707 52.513 165.058 52.678 164.552 53.008C164.068 53.316 163.705 53.734 163.463 54.262C163.287 54.548 163.034 54.691 162.704 54.691H160.097C159.855 54.691 159.668 54.625 159.536 54.493C159.426 54.361 159.371 54.185 159.371 53.965C159.393 53.613 159.536 53.184 159.8 52.678C160.064 52.172 160.482 51.688 161.054 51.226C161.626 50.742 162.363 50.335 163.265 50.005C164.167 49.675 165.256 49.51 166.532 49.51C167.918 49.51 169.084 49.686 170.03 50.038C170.998 50.368 171.768 50.819 172.34 51.391C172.912 51.963 173.33 52.634 173.594 53.404C173.858 54.174 173.99 54.988 173.99 55.846V66.208C173.99 66.428 173.913 66.615 173.759 66.769C173.605 66.923 173.418 67 173.198 67H170.525C170.283 67 170.085 66.923 169.931 66.769C169.799 66.615 169.733 66.428 169.733 66.208V64.921C169.447 65.339 169.062 65.735 168.578 66.109C168.094 66.461 167.5 66.758 166.796 67C166.114 67.22 165.3 67.33 164.354 67.33ZM165.476 64.195C166.246 64.195 166.939 64.03 167.555 63.7C168.193 63.37 168.688 62.864 169.04 62.182C169.414 61.478 169.601 60.598 169.601 59.542V58.849L166.301 59.377C165.003 59.575 164.035 59.894 163.397 60.334C162.759 60.774 162.44 61.313 162.44 61.951C162.44 62.435 162.583 62.853 162.869 63.205C163.177 63.535 163.562 63.788 164.024 63.964C164.486 64.118 164.97 64.195 165.476 64.195ZM185.979 74.26C184.373 74.26 183.053 74.051 182.019 73.633C180.985 73.215 180.171 72.709 179.577 72.115C178.983 71.521 178.554 70.927 178.29 70.333C178.048 69.761 177.916 69.31 177.894 68.98C177.872 68.76 177.938 68.562 178.092 68.386C178.268 68.232 178.466 68.155 178.686 68.155H181.557C181.777 68.155 181.953 68.199 182.085 68.287C182.217 68.397 182.327 68.584 182.415 68.848C182.547 69.134 182.723 69.442 182.943 69.772C183.163 70.102 183.493 70.377 183.933 70.597C184.395 70.839 185.022 70.96 185.814 70.96C186.65 70.96 187.354 70.839 187.926 70.597C188.498 70.355 188.927 69.948 189.213 69.376C189.521 68.804 189.675 68.012 189.675 67V64.756C189.147 65.394 188.465 65.911 187.629 66.307C186.815 66.703 185.803 66.901 184.593 66.901C183.405 66.901 182.382 66.714 181.524 66.34C180.666 65.944 179.951 65.405 179.379 64.723C178.807 64.019 178.367 63.194 178.059 62.248C177.773 61.302 177.608 60.257 177.564 59.113C177.542 58.519 177.542 57.925 177.564 57.331C177.608 56.231 177.773 55.208 178.059 54.262C178.345 53.316 178.774 52.491 179.346 51.787C179.94 51.061 180.666 50.5 181.524 50.104C182.382 49.708 183.405 49.51 184.593 49.51C185.847 49.51 186.903 49.752 187.761 50.236C188.619 50.698 189.323 51.281 189.873 51.985V50.665C189.873 50.423 189.95 50.225 190.104 50.071C190.258 49.917 190.445 49.84 190.665 49.84H193.338C193.558 49.84 193.745 49.917 193.899 50.071C194.053 50.225 194.13 50.423 194.13 50.665L194.163 66.571C194.163 68.155 193.866 69.519 193.272 70.663C192.678 71.807 191.776 72.687 190.566 73.303C189.378 73.941 187.849 74.26 185.979 74.26ZM185.814 63.403C186.716 63.403 187.442 63.205 187.992 62.809C188.542 62.413 188.949 61.896 189.213 61.258C189.477 60.62 189.631 59.971 189.675 59.311C189.697 59.025 189.708 58.662 189.708 58.222C189.708 57.782 189.697 57.43 189.675 57.166C189.631 56.484 189.477 55.835 189.213 55.219C188.949 54.581 188.542 54.064 187.992 53.668C187.442 53.25 186.716 53.041 185.814 53.041C184.912 53.041 184.186 53.25 183.636 53.668C183.086 54.064 182.69 54.592 182.448 55.252C182.228 55.912 182.096 56.638 182.052 57.43C182.008 57.958 182.008 58.497 182.052 59.047C182.096 59.817 182.228 60.543 182.448 61.225C182.69 61.885 183.086 62.413 183.636 62.809C184.186 63.205 184.912 63.403 185.814 63.403ZM205.951 67.33C203.509 67.33 201.573 66.626 200.143 65.218C198.713 63.81 197.943 61.808 197.833 59.212C197.811 58.992 197.8 58.717 197.8 58.387C197.8 58.035 197.811 57.76 197.833 57.562C197.921 55.912 198.295 54.482 198.955 53.272C199.637 52.062 200.572 51.138 201.76 50.5C202.948 49.84 204.345 49.51 205.951 49.51C207.733 49.51 209.229 49.884 210.439 50.632C211.649 51.358 212.562 52.381 213.178 53.701C213.794 54.999 214.102 56.506 214.102 58.222V58.915C214.102 59.135 214.025 59.322 213.871 59.476C213.717 59.63 213.519 59.707 213.277 59.707H202.321C202.321 59.707 202.321 59.74 202.321 59.806C202.321 59.872 202.321 59.927 202.321 59.971C202.343 60.741 202.486 61.456 202.75 62.116C203.036 62.754 203.443 63.271 203.971 63.667C204.521 64.063 205.17 64.261 205.918 64.261C206.534 64.261 207.051 64.173 207.469 63.997C207.887 63.799 208.228 63.579 208.492 63.337C208.756 63.095 208.943 62.897 209.053 62.743C209.251 62.479 209.405 62.325 209.515 62.281C209.647 62.215 209.834 62.182 210.076 62.182H212.914C213.134 62.182 213.31 62.248 213.442 62.38C213.596 62.512 213.662 62.677 213.64 62.875C213.618 63.227 213.431 63.656 213.079 64.162C212.749 64.668 212.265 65.163 211.627 65.647C210.989 66.131 210.186 66.538 209.218 66.868C208.272 67.176 207.183 67.33 205.951 67.33ZM202.321 56.935H209.614V56.836C209.614 55.978 209.471 55.23 209.185 54.592C208.899 53.954 208.481 53.448 207.931 53.074C207.381 52.7 206.721 52.513 205.951 52.513C205.181 52.513 204.521 52.7 203.971 53.074C203.421 53.448 203.003 53.954 202.717 54.592C202.453 55.23 202.321 55.978 202.321 56.836V56.935ZM218.397 67C218.177 67 217.99 66.923 217.836 66.769C217.682 66.615 217.605 66.428 217.605 66.208V50.665C217.605 50.423 217.682 50.225 217.836 50.071C217.99 49.917 218.177 49.84 218.397 49.84H221.07C221.29 49.84 221.477 49.917 221.631 50.071C221.807 50.225 221.895 50.423 221.895 50.665V52.018C222.401 51.314 223.05 50.775 223.842 50.401C224.656 50.027 225.591 49.84 226.647 49.84H228C228.242 49.84 228.429 49.917 228.561 50.071C228.715 50.225 228.792 50.412 228.792 50.632V53.008C228.792 53.228 228.715 53.415 228.561 53.569C228.429 53.723 228.242 53.8 228 53.8H225.426C224.37 53.8 223.545 54.097 222.951 54.691C222.379 55.285 222.093 56.099 222.093 57.133V66.208C222.093 66.428 222.016 66.615 221.862 66.769C221.708 66.923 221.51 67 221.268 67H218.397Z" fill="black"/>
</svg>
